<?xml version="1.0" encoding="UTF-8"?>
<svg xmlns="http://www.w3.org/2000/svg" xmlns:xlink="http://www.w3.org/1999/xlink" width="192px" height="192px" viewBox="0 0 192 192" version="1.1">
<g id="surface1">
<path style=" stroke:none;fill-rule:nonzero;fill:rgb(5.882353%,9.019608%,16.470589%);fill-opacity:1;" d="M 24 0 L 168 0 C 181.253906 0 192 10.746094 192 24 L 192 168 C 192 181.253906 181.253906 192 168 192 L 24 192 C 10.746094 192 0 181.253906 0 168 L 0 24 C 0 10.746094 10.746094 0 24 0 Z M 24 0 "/>
<path style=" stroke:none;fill-rule:nonzero;fill:rgb(21.960784%,74.117649%,97.254902%);fill-opacity:1;" d="M 48 72 L 144 72 L 144 84 L 48 84 Z M 48 96 L 120 96 L 120 108 L 48 108 Z M 48 120 L 96 120 L 96 132 L 48 132 Z M 48 120 "/>
<path style=" stroke:none;fill-rule:nonzero;fill:rgb(13.333334%,77.254903%,36.862746%);fill-opacity:1;" d="M 162 108 C 162 98.058594 153.941406 90 144 90 C 134.058594 90 126 98.058594 126 108 C 126 117.941406 134.058594 126 144 126 C 153.941406 126 162 117.941406 162 108 Z M 162 108 "/>
</g>
</svg>
