<svg xmlns="http://www.w3.org/2000/svg" viewBox="0 0 800 500" width="800" height="500">
  <defs>
    <linearGradient id="bg" x1="0%" y1="0%" x2="100%" y2="100%">
      <stop offset="0%" style="stop-color:#0a0e27"/>
      <stop offset="100%" style="stop-color:#1a1f4e"/>
    </linearGradient>
    <filter id="glow">
      <feGaussianBlur stdDeviation="3" result="coloredBlur"/>
      <feMerge>
        <feMergeNode in="coloredBlur"/>
        <feMergeNode in="SourceGraphic"/>
      </feMerge>
    </filter>
  </defs>

  <!-- Background -->
  <rect width="800" height="500" fill="url(#bg)" rx="16"/>

  <!-- Title -->
  <text x="400" y="45" text-anchor="middle" fill="#00d4ff" font-size="24" font-weight="bold" font-family="Segoe UI, sans-serif">Network Simulator 2026 - Desteklenen Cihazlar</text>
  <text x="400" y="70" text-anchor="middle" fill="#7c3aed" font-size="14" font-family="Segoe UI, sans-serif">7 Cihaz Türü • 450+ CLI Komutu • 49 Örnek Proje</text>

  <!-- PC -->
  <g transform="translate(80, 120)">
    <rect x="0" y="0" width="120" height="80" rx="12" fill="#22c55e" stroke="#16a34a" stroke-width="3" filter="url(#glow)"/>
    <rect x="15" y="12" width="90" height="50" rx="6" fill="#0f172a"/>
    <rect x="35" y="62" width="50" height="6" rx="3" fill="#0f172a"/>
    <text x="60" y="100" text-anchor="middle" fill="#fff" font-size="14" font-weight="bold" font-family="Segoe UI, sans-serif">PC</text>
    <text x="60" y="118" text-anchor="middle" fill="#94a3b8" font-size="10" font-family="Segoe UI, sans-serif">Kişisel Bilgisayar</text>
    <text x="60" y="135" text-anchor="middle" fill="#64748b" font-size="9" font-family="Segoe UI, sans-serif">eth0, com1</text>
  </g>

  <!-- L2 Switch -->
  <g transform="translate(230, 120)">
    <rect x="0" y="0" width="120" height="80" rx="12" fill="#8b5cf6" stroke="#7c3aed" stroke-width="3" filter="url(#glow)"/>
    <circle cx="20" cy="20" r="5" fill="#22c55e"/>
    <circle cx="40" cy="20" r="5" fill="#22c55e"/>
    <circle cx="60" cy="20" r="5" fill="#f97316"/>
    <circle cx="80" cy="20" r="5" fill="#22c55e"/>
    <circle cx="100" cy="20" r="5" fill="#ef4444"/>
    <circle cx="20" cy="40" r="5" fill="#22c55e"/>
    <circle cx="40" cy="40" r="5" fill="#22c55e"/>
    <circle cx="60" cy="40" r="5" fill="#22c55e"/>
    <circle cx="80" cy="40" r="5" fill="#22c55e"/>
    <circle cx="100" cy="40" r="5" fill="#22c55e"/>
    <text x="60" y="100" text-anchor="middle" fill="#fff" font-size="14" font-weight="bold" font-family="Segoe UI, sans-serif">L2 Switch</text>
    <text x="60" y="118" text-anchor="middle" fill="#94a3b8" font-size="10" font-family="Segoe UI, sans-serif">WS-C2960</text>
    <text x="60" y="135" text-anchor="middle" fill="#64748b" font-size="9" font-family="Segoe UI, sans-serif">24x FaE + 2x GiE</text>
  </g>

  <!-- L3 Switch -->
  <g transform="translate(380, 120)">
    <rect x="0" y="0" width="120" height="80" rx="12" fill="#9c27b0" stroke="#7b1fa2" stroke-width="3" filter="url(#glow)"/>
    <circle cx="15" cy="15" r="4" fill="#00d4ff"/>
    <circle cx="30" cy="15" r="4" fill="#00d4ff"/>
    <circle cx="45" cy="15" r="4" fill="#00d4ff"/>
    <circle cx="60" cy="15" r="4" fill="#f97316"/>
    <circle cx="75" cy="15" r="4" fill="#00d4ff"/>
    <circle cx="90" cy="15" r="4" fill="#00d4ff"/>
    <circle cx="105" cy="15" r="4" fill="#00d4ff"/>
    <circle cx="15" cy="35" r="4" fill="#00d4ff"/>
    <circle cx="30" cy="35" r="4" fill="#00d4ff"/>
    <circle cx="45" cy="35" r="4" fill="#00d4ff"/>
    <circle cx="60" cy="35" r="4" fill="#00d4ff"/>
    <circle cx="75" cy="35" r="4" fill="#00d4ff"/>
    <circle cx="90" cy="35" r="4" fill="#00d4ff"/>
    <circle cx="105" cy="35" r="4" fill="#00d4ff"/>
    <text x="60" y="100" text-anchor="middle" fill="#fff" font-size="14" font-weight="bold" font-family="Segoe UI, sans-serif">L3 Switch</text>
    <text x="60" y="118" text-anchor="middle" fill="#94a3b8" font-size="10" font-family="Segoe UI, sans-serif">WS-C3650</text>
    <text x="60" y="135" text-anchor="middle" fill="#64748b" font-size="9" font-family="Segoe UI, sans-serif">24x GiE + Routing</text>
  </g>

  <!-- Router -->
  <g transform="translate(530, 120)">
    <circle cx="60" cy="40" r="40" fill="#ef4444" stroke="#dc2626" stroke-width="3" filter="url(#glow)"/>
    <text x="60" y="35" text-anchor="middle" fill="#fff" font-size="12" font-weight="bold" font-family="Segoe UI, sans-serif">Gi0/0</text>
    <text x="60" y="50" text-anchor="middle" fill="#fff" font-size="12" font-weight="bold" font-family="Segoe UI, sans-serif">Gi0/1</text>
    <text x="60" y="65" text-anchor="middle" fill="#fecaca" font-size="10" font-family="Segoe UI, sans-serif">S0/0/0</text>
    <text x="60" y="100" text-anchor="middle" fill="#fff" font-size="14" font-weight="bold" font-family="Segoe UI, sans-serif">Router</text>
    <text x="60" y="118" text-anchor="middle" fill="#94a3b8" font-size="10" font-family="Segoe UI, sans-serif">Cisco IOS</text>
    <text x="60" y="135" text-anchor="middle" fill="#64748b" font-size="9" font-family="Segoe UI, sans-serif">4x GiE + 3x Serial</text>
  </g>

  <!-- Firewall -->
  <g transform="translate(80, 300)">
    <rect x="0" y="0" width="120" height="80" rx="12" fill="#f97316" stroke="#ea580c" stroke-width="3" filter="url(#glow)"/>
    <text x="60" y="30" text-anchor="middle" fill="#fff" font-size="24">🛡️</text>
    <text x="60" y="50" text-anchor="middle" fill="#fff" font-size="12" font-weight="bold" font-family="Segoe UI, sans-serif">FW</text>
    <text x="60" y="100" text-anchor="middle" fill="#fff" font-size="14" font-weight="bold" font-family="Segoe UI, sans-serif">Firewall</text>
    <text x="60" y="118" text-anchor="middle" fill="#94a3b8" font-size="10" font-family="Segoe UI, sans-serif">ASA Tipi</text>
    <text x="60" y="135" text-anchor="middle" fill="#64748b" font-size="9" font-family="Segoe UI, sans-serif">Stateful + NAT + ACL</text>
  </g>

  <!-- IoT Device -->
  <g transform="translate(230, 300)">
    <rect x="0" y="0" width="120" height="80" rx="12" fill="#06b6d4" stroke="#0891b2" stroke-width="3" filter="url(#glow)"/>
    <circle cx="30" cy="30" r="12" fill="#22c55e"/>
    <text x="30" y="34" text-anchor="middle" fill="#fff" font-size="10">T</text>
    <circle cx="60" cy="30" r="12" fill="#3b82f6"/>
    <text x="60" y="34" text-anchor="middle" fill="#fff" font-size="10">H</text>
    <circle cx="90" cy="30" r="12" fill="#f97316"/>
    <text x="90" y="34" text-anchor="middle" fill="#fff" font-size="10">L</text>
    <text x="60" y="100" text-anchor="middle" fill="#fff" font-size="14" font-weight="bold" font-family="Segoe UI, sans-serif">IoT Cihazı</text>
    <text x="60" y="118" text-anchor="middle" fill="#94a3b8" font-size="10" font-family="Segoe UI, sans-serif">Sensör / Aktuatör</text>
    <text x="60" y="135" text-anchor="middle" fill="#64748b" font-size="9" font-family="Segoe UI, sans-serif">Zigbee + MQTT</text>
  </g>

  <!-- WLC -->
  <g transform="translate(380, 300)">
    <rect x="0" y="0" width="120" height="80" rx="12" fill="#ec4899" stroke="#db2777" stroke-width="3" filter="url(#glow)"/>
    <text x="60" y="30" text-anchor="middle" fill="#fff" font-size="24">📡</text>
    <text x="60" y="50" text-anchor="middle" fill="#fff" font-size="12" font-weight="bold" font-family="Segoe UI, sans-serif">WLC</text>
    <text x="60" y="100" text-anchor="middle" fill="#fff" font-size="14" font-weight="bold" font-family="Segoe UI, sans-serif">Wireless LAN</text>
    <text x="60" y="118" text-anchor="middle" fill="#94a3b8" font-size="10" font-family="Segoe UI, sans-serif">Controller</text>
    <text x="60" y="135" text-anchor="middle" fill="#64748b" font-size="9" font-family="Segoe UI, sans-serif">AP Yönetimi + Roaming</text>
  </g>

  <!-- Connection Types Legend -->
  <g transform="translate(530, 300)">
    <rect x="0" y="0" width="200" height="160" rx="12" fill="#1e293b" stroke="#334155" stroke-width="2"/>
    <text x="100" y="25" text-anchor="middle" fill="#00d4ff" font-size="13" font-weight="bold" font-family="Segoe UI, sans-serif">Kablo Türleri</text>

    <line x1="20" y1="50" x2="80" y2="50" stroke="#fbbf24" stroke-width="3"/>
    <text x="90" y="54" fill="#fbbf24" font-size="11" font-family="Segoe UI, sans-serif">Straight (Bakır)</text>

    <line x1="20" y1="75" x2="80" y2="75" stroke="#00ff88" stroke-width="3"/>
    <text x="90" y="79" fill="#00ff88" font-size="11" font-family="Segoe UI, sans-serif">Fiber Optik</text>

    <line x1="20" y1="100" x2="80" y2="100" stroke="#a78bfa" stroke-width="4"/>
    <text x="90" y="104" fill="#a78bfa" font-size="11" font-family="Segoe UI, sans-serif">Trunk (802.1Q)</text>

    <line x1="20" y1="125" x2="80" y2="125" stroke="#f43f5e" stroke-width="3"/>
    <text x="90" y="129" fill="#f43f5e" font-size="11" font-family="Segoe UI, sans-serif">Serial (HDLC)</text>

    <line x1="20" y1="150" x2="80" y2="150" stroke="#00d4ff" stroke-width="2" stroke-dasharray="8,4"/>
    <text x="90" y="154" fill="#00d4ff" font-size="11" font-family="Segoe UI, sans-serif">Wireless (WiFi)</text>
  </g>

  <!-- Footer -->
  <text x="400" y="485" text-anchor="middle" fill="#64748b" font-size="11" font-family="Segoe UI, sans-serif">Network Simulator 2026 • Next.js 16 • React 19 • TypeScript • Tailwind CSS</text>
</svg>
